<?xml version="1.0" standalone="no"?>
<!DOCTYPE svg PUBLIC "-//W3C//DTD SVG 1.1//EN" "http://www.w3.org/Graphics/SVG/1.1/DTD/svg11.dtd">
<svg xmlns="http://www.w3.org/2000/svg">
<metadata>Generated by Fontastic.me</metadata>
<defs>
<font id="digup" horiz-adv-x="512">
<font-face font-family="digup" units-per-em="512" ascent="480" descent="-32"/>
<missing-glyph horiz-adv-x="512" />

<glyph unicode="&#97;" d="M183 152c-47 0-91 18-125 52-33 33-52 78-52 125 0 47 19 91 52 125 34 33 78 52 125 52 47 0 92-19 125-52 34-34 52-78 52-125 0-47-18-92-52-125-33-34-77-52-125-52z m0 302c-33 0-65-13-89-36-23-24-36-56-36-89 0-34 13-65 36-89 24-24 56-37 89-37 34 0 65 13 89 37 24 24 37 55 37 89 0 33-13 65-37 89-24 23-55 36-89 36z m297-448c-7 0-13 3-18 8l-190 190c-10 10-10 26 0 36 10 10 26 10 36 0l190-190c10-10 10-26 0-36-5-5-11-8-18-8z"/>
<glyph unicode="&#98;" d="M465 424l-431 0c-15 0-27 12-27 27 0 15 12 27 27 27l431 0c15 0 27-12 27-27 0-15-12-27-27-27z m0-188l-431 0c-15 0-27 12-27 27 0 15 12 27 27 27l431 0c15 0 27-12 27-27 0-15-12-27-27-27z m0-189l-431 0c-15 0-27 12-27 27 0 15 12 27 27 27l431 0c15 0 27-12 27-27 0-15-12-27-27-27z"/>
<glyph unicode="&#99;" d="M478 392l-41 0c-1 1-1 2-2 2-41 59-109 94-181 94-73 0-141-35-182-94-1 0-1-1-1-2l-46 0c-11 0-20-9-20-20l0-334c0-11 9-20 20-20l453 0c10 0 19 9 19 20l0 334c0 11-9 20-19 20z m-224 57c50 0 98-21 132-57l-265 0c34 36 82 57 133 57z m204-392l-414 0 0 296 414 0z m-265 138l114 0c34 0 60 31 60 59 0 28-26 59-60 59l-114 0c-34 0-59-31-59-59 0-28 25-59 59-59z m0 79l114 0c11 0 20-12 20-20 0-8-9-19-20-19l-114 0c-11 0-20 11-20 19 0 8 9 20 20 20z"/>
<glyph unicode="&#100;" d="M484 276c-2 6-6 10-11 14l-137 137c-13 13-35 13-48 0-13-14-13-35 0-48l81-82-326 0c-18 0-34-15-34-34 0-19 16-34 34-34l333 0-88-89c-13-13-13-35 0-48 7-7 15-10 24-10 9 0 18 3 24 10l143 143c12 11 13 28 5 41z"/>
<glyph unicode="&#102;" d="M121 174c-12 2-23-7-25-19l-3-28c-28 36-43 80-43 127 0 56 21 108 61 147 53 53 131 74 203 54 12-3 24 4 28 15 3 12-4 25-16 28-88 24-182-1-247-65-48-48-74-112-74-179 0-59 20-116 57-161l-32-4c-12-1-20-13-19-25 2-11 11-19 22-19 1 0 2 0 3 0l75 10c10 1 18 9 20 19l9 75c2 13-6 24-19 25z m333 241l25 3c12 2 20 13 19 25-2 12-13 21-25 19l-75-9c-10-2-18-10-20-20l-9-75c-2-12 7-23 19-25 1 0 2 0 3 0 11 0 20 8 22 19l4 37c70-82 66-205-11-283-56-55-137-75-212-51-11 4-24-3-28-14-3-12 3-24 15-28 25-8 52-12 78-12 66 0 130 25 178 74 93 93 99 241 17 340z m-247-110c-28-28-28-74 0-102 14-14 32-21 51-21 20 0 38 7 51 21 28 28 28 74 0 102-27 27-74 27-102 0z m71-71c-11-10-29-10-39 0-11 11-11 29 0 39 5 6 12 8 19 8 8 0 15-2 20-8 11-10 11-28 0-39z"/>
<glyph unicode="&#103;" d="M19 235l143-143c7-7 15-10 24-10 9 0 18 3 24 10 14 13 14 35 0 48l-88 89 333 0c19 0 34 15 34 34 0 19-15 34-34 34l-326 0 81 82c14 13 14 34 0 48-13 13-35 13-48 0l-137-137c-5-4-9-8-11-14-8-13-6-30 5-41z"/>
<glyph unicode="&#104;" d="M250 30c-7 0-13 2-19 7l-66 63-132 0c-15 0-27 12-27 27l0 340c0 15 12 28 27 28l434 0c15 0 27-13 27-28l0-340c0-15-12-27-27-27l-132 0-66-63c-6-5-12-7-19-7z m-190 124l116 0c7 0 13-3 18-7l56-53 56 53c5 4 11 7 18 7l116 0 0 286-380 0z"/>
<glyph unicode="&#105;" d="M492 271c-41 98-136 161-242 161-106 0-201-63-242-161-3-6-3-12 0-18 41-98 136-161 242-161 106 0 201 63 242 161 2 6 2 12 0 18z m-153 94c6-13 10-28 10-43 0-54-45-98-99-98-55 0-99 44-99 98 0 15 4 30 10 43 27 12 57 19 89 19 31 0 62-7 89-19z m-89-225c-83 0-158 47-194 122 12 25 28 46 47 64 0-1 0-2 0-4 0-81 66-146 147-146 81 0 147 65 147 146 0 2 0 3 0 4 19-18 35-39 46-64-35-75-110-122-193-122z"/>
<glyph unicode="&#106;" d="M497 405c-8-5-33-14-55-16 14 8 40 34 45 54-14-9-57-22-57-22 0 0 0 0 0 0-30 19-48 31-76 31-55 0-102-45-102-100 0-7 0-15 2-22l-1 0c-74 2-162 39-211 103-30-52-4-110 30-131-12-1-33 1-43 11-1-34 16-80 76-97-11-6-32-4-41-3 3-29 44-68 89-68-16-18-71-51-138-41 46-28 99-44 156-44 160 0 285 130 278 291 0 0 0 0 0 0 0 1 0 1 0 1 0 1 0 1 0 2 14 10 34 27 48 51z"/>
<glyph unicode="&#107;" d="M418 243c-15 17-35 28-61 33l0 3c18 7 32 19 42 35 10 16 15 34 15 55 0 18-4 33-11 47-7 13-18 24-33 32-14 8-29 13-44 15-16 3-39 4-69 4l-147 0 0-422 166 0c29 0 52 3 71 8 19 5 36 14 51 27 14 10 24 23 32 39 8 16 12 34 12 55 0 29-8 52-24 69z m-114 80c-4-7-9-12-18-16-7-4-15-6-22-6-7 0-19-1-37-1l-13 0 0 90 7 0c18 0 32-1 42-1 9 0 17-2 24-5 7-3 13-8 16-15 4-8 5-15 5-21 0-10-1-18-4-25z m24-174c-4-8-11-14-21-18-11-5-21-8-32-8-10 0-29 0-56 0l-5 0 0 105 19 0c18 0 33 0 44 0 11-1 20-2 26-4 11-4 19-10 24-17 5-8 7-18 7-31 0-10-2-19-6-27z"/>
<glyph unicode="&#108;" d="M345 407l62 0 0 90-60 0 0 0c-90-4-119-60-121-121l1 0 0-30-61 0 0-90 61 0 0-241 90 0 0 241 74 0 15 90-89 0 0 27c0 18 12 34 28 34z"/>
<glyph unicode="&#109;" d="M167 102c-2 0-3 0-4 0-11 1-22 6-29 16l-128 164 65 51 101-129 266 244 55-61-298-274c-8-7-18-11-28-11z"/>
<glyph unicode="&#110;" d="M494 311l-195 0 0 195-98 0 0-195-195 0 0-98 195 0 0-195 98 0 0 195 195 0z"/>
<glyph unicode="&#101;" d="M250 155c-8 0-17 2-24 7l-203 146c-18 13-22 38-9 57 13 18 38 22 56 9l180-129 179 129c19 13 44 9 57-9 13-19 9-44-9-57l-203-146c-8-5-16-7-24-7z"/>
<glyph unicode="&#114;" d="M250 382c-8 0-17-3-24-8l-203-146c-18-13-22-38-9-56 13-19 38-23 56-10l180 129 179-129c19-13 44-9 57 10 13 18 9 43-9 56l-203 146c-8 5-16 8-24 8z"/>
<glyph unicode="&#115;" d="M469 506l-439 0c-13 0-24-11-24-24l0-439c0-14 11-25 24-25l439 0c14 0 25 11 25 25l0 439c0 13-11 24-25 24z m-24-49l0-73-390 0 0 73z m-390-390l0 268 390 0 0-268z m239 244l-105 0c-35 0-61-32-61-61 0-29 26-61 61-61l105 0c34 0 60 32 60 61 0 29-26 61-60 61z m0-73l-105 0c-6 0-12 8-12 12 0 4 6 12 12 12l105 0c5 0 11-8 11-12 0-4-6-12-11-12z"/>
<glyph unicode="&#116;" d="M462 466c-2 9-11 20-20 20l-384 0c-9 0-18-10-20-19l-31-146c-2-6 0-10 4-15 3-5 9-3 15-3l14 0 0-245c0-11 9-20 20-20l366 0c12 0 21 9 21 20l0 245 26 0c7 0 12-1 16 4 4 5 6 8 4 14z m-382-387l0 61 326 0 0-61z m326 102l-326 0 0 122 326 0z m21 163l-375 0 22 101 351 0 23-101z m-229-161c5 0 11 2 15 6l44 45c8 8 8 21 0 29-8 8-21 8-28 0l-45-45c-8-8-8-21 0-29 4-4 9-6 14-6z m65 6c4-4 9-6 14-6 5 0 11 2 15 6l44 45c8 8 8 21 0 29-8 8-21 8-28 0l-45-45c-8-8-8-21 0-29z"/>
<glyph unicode="&#117;" d="M494 426l-80 80-164-164-164 164-80-80 164-164-164-164 80-80 164 164 164-164 80 80-164 164z"/>
<glyph unicode="&#118;" d="M472 408l-200 0c-12 0-22 13-22 25 0 12 10 24 22 24l200 0c12 0 22-12 22-24 0-12-10-25-22-25z m-271-368c0-12-10-22-22-22l-151 0c-12 0-22 10-22 22l0 151c0 12 10 22 22 22l151 0c12 0 22-10 22-22z m-146 27l97 0 0 98-97 0z m146 266c0-12-10-22-22-22l-151 0c-12 0-22 10-22 22l0 151c0 12 10 22 22 22l151 0c12 0 22-10 22-22z m-146 27l97 0 0 97-97 0z m417-220l-200 0c-12 0-22 12-22 25 0 12 10 24 22 24l200 0c12 0 22-12 22-24 0-13-10-25-22-25z"/>
<glyph unicode="&#119;" d="M472 18l-444 0c-12 0-22 10-22 22l0 444c0 12 10 22 22 22l444 0c12 0 22-10 22-22l0-444c0-12-10-22-22-22z m-417 49l390 0 0 390-390 0z"/>
<glyph unicode="&#113;" d="M179 18c-6 0-12 2-18 6-13 10-16 29-7 42l141 196-141 196c-9 14-6 33 7 42 14 10 33 7 42-7l154-213c7-11 7-25 0-36l-154-213c-6-8-15-13-24-13z"/>
<glyph unicode="&#112;" d="M307 31l-153 213c-7 11-7 25 0 36l153 213c10 14 29 17 43 7 13-9 16-28 7-42l-141-196 141-196c9-13 6-32-7-42-6-4-12-6-18-6-9 0-19 5-25 13z"/>
<glyph unicode="&#120;" d="M492 270c-41 98-136 161-242 161-106 0-201-63-242-161-2-5-2-11 0-16 41-98 136-161 242-161 106 0 201 63 242 161 2 5 2 11 0 16z m-149 100c7-15 11-30 11-47 0-57-47-104-104-104-58 0-105 47-105 104 0 17 4 32 11 47 29 13 61 20 94 20 33 0 65-7 93-20z m-93-236c-87 0-165 50-201 128 14 29 33 55 56 75 0-5 0-9 0-14 0-80 65-145 145-145 80 0 145 65 145 145 0 5 0 9-1 14 24-20 43-46 57-75-36-78-114-128-201-128z m0 143c23 0 42 19 42 43 0 23-19 42-42 42-24 0-43-19-43-42 0-24 19-43 43-43z"/>
<glyph unicode="&#121;" d="M90 506l122 0 0-488-122 0z m198 0l122 0 0-488-122 0z"/>
<glyph unicode="&#122;" d="M100 506l397-244-397-244z"/>
<glyph unicode="&#66;" d="M494 65l-127 127c55 78 49 186-21 256-38 37-88 58-141 58-53 0-103-21-141-58-37-38-58-88-58-141 0-53 21-103 58-141 38-38 88-58 141-58 42 0 82 13 116 37l126-127z m-383 148c-25 25-39 58-39 94 0 35 14 69 39 94 25 25 59 39 94 39 36 0 69-14 94-39 52-52 52-136 0-188-50-50-137-50-188 0z"/>
<glyph unicode="&#65;" d="M471 434l-136 0c-11 0-20-9-20-20 0-11 9-19 20-19l120 0 0-274-410 0 0 274 114 0c11 0 20 8 20 19 0 11-9 20-20 20l-136 0c-11 0-17-9-17-20l0-312c0-11 6-20 17-20l448 0c11 0 23 9 23 20l0 312c0 11-12 20-23 20z m-298-174l66-66c4-4 9-6 14-6 5 0 10 2 13 6l66 66c8 7 8 20 0 27-7 8-20 8-27 0l-33-32 0 167c0 11-9 20-19 20-11 0-20-9-20-20l0-167-32 32c-8 8-20 8-28 0-8-7-8-20 0-27z"/>
<glyph unicode="&#67;" d="M492 267c0 2-2 3-3 4l-43 43c-4 4-11 4-15 0-4-4-4-11 0-15l25-25-439 0c-6 0-11-5-11-11 0-6 5-10 11-10l442 0-28-28c-4-4-4-11 0-15 2-2 5-3 8-3 2 0 5 1 7 3l45 45c3 3 4 8 1 12z"/>
<glyph unicode="&#68;" d="M357 218c24 26 38 60 38 97l0 46c0 80-65 145-145 145-80 0-145-65-145-145l0-46c0-37 14-71 37-97-77-34-117-93-117-173 0-15 12-27 27-27 15 0 27 12 27 27 0 67 38 111 117 135 17-6 35-10 54-10 19 0 37 4 54 10 78-24 117-68 117-135 0-15 12-27 27-27 15 0 27 12 27 27 0 80-41 139-118 173z m-198 97l0 46c0 50 41 91 91 91 50 0 91-41 91-91l0-46c0-50-41-91-91-91-50 0-91 41-91 91z"/>
<glyph unicode="&#69;" d="M290 262l195 195c12 11 12 29 0 41-11 11-29 11-40 0l-195-195-195 194c-11 12-29 12-41 0-11-11-11-29 0-40l195-195-195-195c-11-11-11-29 0-40 6-6 13-9 21-9 7 0 14 3 20 9l195 194 195-194c5-6 13-9 20-9 7 0 15 3 20 9 12 11 12 29 0 40z"/>
<glyph unicode="&#70;" d="M420 223c-14 13-36 13-49 0l-84-91 1 339c0 19-15 35-35 35-19 0-34-16-34-35l0-338-90 90c-14 13-35 13-49 0-14-14-14-36 0-49l145-146c7-6 16-10 25-10 6 0 12 2 17 5 2 1 4 3 6 5 1 0 1 0 1 0l0 0c3 2 5 4 6 6l140 140c13 13 13 35 0 49z"/>
<glyph unicode="&#71;" d="M420 301c-14-13-36-13-49 0l-84 91 1-339c0-19-15-35-35-35-19 0-34 16-34 35l0 338-90-90c-14-13-35-13-49 0-14 14-14 36 0 49l145 146c7 6 16 10 25 10 6 0 12-2 17-5 2-1 4-3 6-5 1 0 1 0 1 0l0 0c3-2 5-4 6-6l140-140c13-13 13-35 0-49z"/>
<glyph unicode="&#72;" d="M250 506c-131 0-237-109-237-244 0-134 106-244 237-244 130 0 237 110 237 244 0 135-107 244-237 244z m0-431c-99 0-180 84-180 187 0 103 81 187 180 187 99 0 180-84 180-187 0-103-81-187-180-187z m30 300l-57 0 0-85-86 0 0-57 86 0 0-86 57 0 0 86 86 0 0 57-86 0z"/>
<glyph unicode="&#73;" d="M268 104c22 6 42 15 61 26 20 11 36 24 50 38 15 15 26 31 34 48 8 17 13 34 13 52 0 11-3 20-7 28-4 7-9 11-15 11-6 0-11-1-16-3-4-2-8-5-12-8-5-3-10-6-15-8-6-2-13-3-22-3-10 0-19 2-27 6-9 4-17 10-23 17-7 7-12 16-16 26-3 10-5 21-5 32 0 13 2 24 7 35 5 10 12 20 21 28 9 8 20 14 32 18 12 5 25 7 38 7 18 0 35-4 50-12 16-8 29-18 41-32 11-14 20-30 27-48 6-19 10-38 10-59 0-32-6-63-19-90-12-28-28-52-49-72-20-20-44-37-72-49-27-12-56-19-86-22z m-262 0c22 6 43 15 62 26 19 11 35 24 50 38 14 15 25 31 33 48 9 17 13 34 13 52 0 11-2 20-6 28-5 7-10 11-16 11-6 0-11-1-15-3-5-2-9-5-13-8-5-3-9-6-15-8-5-2-13-4-22-4-10 0-19 3-27 7-9 4-16 10-23 17-7 7-12 16-15 26-4 10-6 21-6 32 0 13 3 24 8 35 5 10 12 20 21 28 9 8 19 14 31 18 12 5 25 7 39 7 17 0 34-4 49-12 16-8 29-18 41-32 11-14 20-30 27-48 7-19 10-38 10-59 0-33-6-63-18-90-12-28-29-52-49-72-21-21-45-37-72-49-28-12-57-19-87-22z"/>
<glyph unicode="&#74;" d="M36 33c-4 0-8 1-12 3-9 5-18 14-18 24l0 411c0 15 23 35 38 35l434 0c15 0 16-20 16-35l0-298c0-15-2-8-16-8l-252 0m-171 292l0-348 147 94c4 2 18 10 23 10l220 0 0 244z"/>
<glyph unicode="&#111;" d="M6 345l81 0 0-271-81 0z m136-109l81 0 0-162-81 0z m270 109l82 0 0-271-82 0z m-135 81l81 0 0-352-81 0z"/>
</font>
</defs>
</svg>
